<svg width="1001" height="498" viewBox="0 0 1001 498" fill="none" xmlns="http://www.w3.org/2000/svg">
<g opacity="0.29827">
<path d="M1008.08 165.448L443.182 -354.858V-745.19L28.1096 -768C24.9043 -760.456 4.36709 -738.714 7.57176 -726.596C11.43 -712.102 30.8387 -716.735 36.4776 -707.409C43.0661 -696.42 31.7291 -651.749 28.3457 -638.86C21.8759 -614.445 7.09676 -594.665 2.82235 -570.25C-4.35982 -529.263 10.1824 -532.53 37.7242 -506.927C84.141 -463.742 46.9244 -418.952 58.6176 -368.223C68.1146 -326.878 109.605 -305.554 124.8 -264.211C136.553 -232.37 152.697 -224.233 177.746 -200.947C177.153 -215.084 164.51 -256.785 188.253 -253.102C211.817 -249.478 202.736 -214.669 207.247 -200.115C211.045 -187.997 237.933 -163.761 215.616 -152.593C208.196 -148.91 187.066 -163.582 178.577 -167.503C184.572 -148.791 180.774 -129.367 190.271 -111.487C201.608 -90.162 213.835 -98.3588 228.853 -86.7754C244.344 -74.8355 242.683 -61.1137 235.797 -43.0554C228.615 -24.2247 221.196 -27.1352 232.592 -4.44342C240.843 11.9512 254.85 32.7421 266.9 45.2164C273.904 52.4634 281.502 54.1267 288.506 63.3932C294.323 71.1155 292.067 81.2142 299.012 88.1638C310.883 100.104 331.006 100.282 340.384 115.904C350.831 133.309 338.96 146.437 369.706 144.833C371.309 179.643 377.897 211.185 377.541 245.994C394.695 252.825 422.414 244.687 440.399 241.063C458.266 265.18 481.355 248.429 501.774 261.558C510.678 267.26 508.837 281.517 514.239 286.506C525.339 296.723 533.529 290.308 547.301 293.872C557.51 296.486 565.404 303.97 575.138 306.703C584.338 309.257 599.475 303.258 606.301 311.396C614.492 321.138 600.78 338.958 613.127 346.799C623.395 353.333 638.115 337.77 648.088 340.027C659.721 342.7 693.079 373.174 701.271 383.212C710.59 394.677 719.969 416.062 725.25 430.793C733.501 453.841 732.373 465.127 749.408 481.998C760.27 492.75 749.942 493.522 767.63 496.67C779.204 498.749 794.518 490.374 806.212 489.067C830.549 486.394 855.122 491.027 879.102 486.453C901.421 482.176 922.729 475.166 945.64 471.899C965.465 469.048 1000.37 471.246 1017.94 461.801C1036.99 451.643 1038.71 428.654 1011.17 432.932C1008.97 418.26 1018.77 398.003 1007.85 387.847C1023.04 367.056 1028.56 352.384 1030.93 326.959C1032 315.792 1032.48 303.436 1038 294.05C1043.4 284.783 1058.59 279.259 1061.56 271.299C1066.13 258.943 1058.83 253.419 1053.25 246.528C1049.69 242.073 1039.54 244.212 1036.63 240.291C1031.23 233.103 1036.57 225.678 1033.6 218.431C1024.94 197.462 1014.61 189.205 1008.08 165.444C1008.26 169.424 1008.44 173.463 1008.2 177.384" stroke="white" stroke-width="2" stroke-linecap="round" stroke-linejoin="round"/>
</g>
<path d="M729.114 85.9394C720.546 109.321 740.614 117.526 756.675 132.807C761.434 137.336 761.888 144.817 756.879 149.342C746.107 159.074 705.264 144.917 707.854 157.745C710.53 170.994 745.061 189.531 746.618 190.799C760.284 201.932 764.735 230.174 757.208 245.658C751.852 256.676 716.342 252.962 705.172 249.293C632.024 225.266 664.985 228.131 582.817 220.67C576.527 220.099 569.935 219.806 563.894 221.65C557.671 223.549 557.869 231.339 559.957 235.55C566.876 249.506 597.849 273.178 589.514 291.523C586.956 297.152 580.963 300.707 578.264 306.27C576.151 310.627 576.385 315.772 575.445 320.523" stroke="white" stroke-width="2"/>
<path fill-rule="evenodd" clip-rule="evenodd" d="M573.5 328C577.09 328 580 325.09 580 321.5C580 317.91 577.09 315 573.5 315C569.91 315 567 317.91 567 321.5C567 325.09 569.91 328 573.5 328Z" fill="#4AF6CD"/>
<path fill-rule="evenodd" clip-rule="evenodd" d="M661 365C662.657 365 664 363.657 664 362C664 360.343 662.657 359 661 359C659.343 359 658 360.343 658 362C658 363.657 659.343 365 661 365Z" fill="#4AF6CD"/>
<path fill-rule="evenodd" clip-rule="evenodd" d="M725 473C726.657 473 728 471.657 728 470C728 468.343 726.657 467 725 467C723.343 467 722 468.343 722 470C722 471.657 723.343 473 725 473Z" fill="#4AF6CD"/>
<path fill-rule="evenodd" clip-rule="evenodd" d="M365 230C366.657 230 368 228.657 368 227C368 225.343 366.657 224 365 224C363.343 224 362 225.343 362 227C362 228.657 363.343 230 365 230Z" fill="#4AF6CD"/>
<path fill-rule="evenodd" clip-rule="evenodd" d="M729.5 93C733.09 93 736 90.0899 736 86.5C736 82.9101 733.09 80 729.5 80C725.91 80 723 82.9101 723 86.5C723 90.0899 725.91 93 729.5 93Z" fill="#4AF6CD"/>
<path d="M398.41 312.976L396.17 324H394.218L392.186 314.768L390.138 324H388.234L385.994 312.976H387.482L389.258 322.672L391.386 312.976H393.002L395.178 322.672L397.018 312.976H398.41ZM406.544 319.536C406.544 319.781 406.534 320.032 406.512 320.288H401.136C401.2 321.216 401.435 321.899 401.84 322.336C402.246 322.773 402.768 322.992 403.408 322.992C403.814 322.992 404.187 322.933 404.528 322.816C404.87 322.699 405.227 322.512 405.6 322.256L406.24 323.136C405.344 323.84 404.363 324.192 403.296 324.192C402.123 324.192 401.206 323.808 400.544 323.04C399.894 322.272 399.568 321.216 399.568 319.872C399.568 318.997 399.707 318.224 399.984 317.552C400.272 316.869 400.678 316.336 401.2 315.952C401.734 315.568 402.358 315.376 403.072 315.376C404.192 315.376 405.051 315.744 405.648 316.48C406.246 317.216 406.544 318.235 406.544 319.536ZM405.088 319.104C405.088 318.272 404.923 317.637 404.592 317.2C404.262 316.763 403.766 316.544 403.104 316.544C401.899 316.544 401.243 317.429 401.136 319.2H405.088V319.104ZM411.183 315.376C411.759 315.376 412.276 315.456 412.735 315.616C413.194 315.776 413.631 316.016 414.047 316.336L413.423 317.264C413.039 317.019 412.671 316.837 412.319 316.72C411.978 316.603 411.615 316.544 411.231 316.544C410.751 316.544 410.372 316.645 410.095 316.848C409.818 317.04 409.679 317.307 409.679 317.648C409.679 317.989 409.807 318.256 410.063 318.448C410.33 318.64 410.804 318.827 411.487 319.008C412.426 319.243 413.124 319.563 413.583 319.968C414.052 320.373 414.287 320.928 414.287 321.632C414.287 322.464 413.962 323.099 413.311 323.536C412.671 323.973 411.887 324.192 410.959 324.192C409.679 324.192 408.618 323.824 407.775 323.088L408.559 322.192C409.274 322.736 410.063 323.008 410.927 323.008C411.482 323.008 411.919 322.896 412.239 322.672C412.57 322.437 412.735 322.123 412.735 321.728C412.735 321.44 412.676 321.211 412.559 321.04C412.442 320.859 412.239 320.704 411.951 320.576C411.663 320.437 411.242 320.293 410.687 320.144C409.791 319.909 409.14 319.595 408.735 319.2C408.34 318.805 408.143 318.304 408.143 317.696C408.143 317.259 408.271 316.864 408.527 316.512C408.794 316.149 409.156 315.872 409.615 315.68C410.084 315.477 410.607 315.376 411.183 315.376ZM420.62 323.616C420.065 324 419.436 324.192 418.732 324.192C418.017 324.192 417.457 323.989 417.052 323.584C416.657 323.168 416.46 322.571 416.46 321.792V316.704H414.988V315.568H416.46V313.664L417.932 313.488V315.568H419.932L419.772 316.704H417.932V321.728C417.932 322.165 418.006 322.485 418.156 322.688C418.316 322.88 418.577 322.976 418.94 322.976C419.27 322.976 419.644 322.864 420.06 322.64L420.62 323.616ZM429.179 312.784C429.915 312.784 430.545 312.891 431.067 313.104C431.59 313.307 432.097 313.627 432.587 314.064L431.755 314.992C431.339 314.661 430.929 314.421 430.523 314.272C430.129 314.112 429.702 314.032 429.243 314.032C428.667 314.032 428.193 314.165 427.819 314.432C427.446 314.699 427.259 315.088 427.259 315.6C427.259 315.92 427.323 316.192 427.451 316.416C427.579 316.629 427.814 316.827 428.155 317.008C428.507 317.189 429.014 317.381 429.675 317.584C430.369 317.797 430.945 318.027 431.403 318.272C431.862 318.517 432.23 318.859 432.507 319.296C432.795 319.723 432.939 320.267 432.939 320.928C432.939 321.568 432.779 322.133 432.459 322.624C432.15 323.115 431.697 323.499 431.099 323.776C430.513 324.053 429.814 324.192 429.003 324.192C427.478 324.192 426.23 323.717 425.259 322.768L426.091 321.84C426.539 322.203 426.993 322.48 427.451 322.672C427.91 322.853 428.422 322.944 428.987 322.944C429.67 322.944 430.235 322.779 430.683 322.448C431.131 322.107 431.355 321.616 431.355 320.976C431.355 320.613 431.286 320.315 431.147 320.08C431.009 319.835 430.769 319.616 430.427 319.424C430.097 319.232 429.611 319.04 428.971 318.848C427.841 318.507 427.014 318.096 426.491 317.616C425.969 317.136 425.707 316.485 425.707 315.664C425.707 315.109 425.851 314.613 426.139 314.176C426.438 313.739 426.849 313.397 427.371 313.152C427.905 312.907 428.507 312.784 429.179 312.784ZM439.066 315.376C439.834 315.376 440.431 315.605 440.858 316.064C441.295 316.523 441.514 317.152 441.514 317.952V324H440.042V318.16C440.042 317.563 439.925 317.141 439.69 316.896C439.466 316.651 439.135 316.528 438.698 316.528C438.261 316.528 437.871 316.656 437.53 316.912C437.189 317.168 436.869 317.531 436.57 318V324H435.098V312.192L436.57 312.032V316.736C437.231 315.829 438.063 315.376 439.066 315.376ZM447.641 315.376C448.825 315.376 449.742 315.771 450.393 316.56C451.054 317.349 451.385 318.421 451.385 319.776C451.385 320.651 451.236 321.424 450.937 322.096C450.638 322.757 450.206 323.275 449.641 323.648C449.076 324.011 448.404 324.192 447.625 324.192C446.441 324.192 445.518 323.797 444.857 323.008C444.196 322.219 443.865 321.147 443.865 319.792C443.865 318.917 444.014 318.149 444.313 317.488C444.612 316.816 445.044 316.299 445.609 315.936C446.174 315.563 446.852 315.376 447.641 315.376ZM447.641 316.56C446.18 316.56 445.449 317.637 445.449 319.792C445.449 321.936 446.174 323.008 447.625 323.008C449.076 323.008 449.801 321.931 449.801 319.776C449.801 317.632 449.081 316.56 447.641 316.56ZM457.481 315.376C457.78 315.376 458.057 315.408 458.313 315.472L458.041 316.912C457.785 316.848 457.54 316.816 457.305 316.816C456.782 316.816 456.361 317.008 456.041 317.392C455.721 317.776 455.47 318.373 455.289 319.184V324H453.817V315.568H455.081L455.225 317.28C455.449 316.651 455.753 316.176 456.137 315.856C456.521 315.536 456.969 315.376 457.481 315.376ZM465.872 319.536C465.872 319.781 465.862 320.032 465.84 320.288H460.464C460.528 321.216 460.763 321.899 461.168 322.336C461.574 322.773 462.096 322.992 462.736 322.992C463.142 322.992 463.515 322.933 463.856 322.816C464.198 322.699 464.555 322.512 464.928 322.256L465.568 323.136C464.672 323.84 463.691 324.192 462.624 324.192C461.451 324.192 460.534 323.808 459.872 323.04C459.222 322.272 458.896 321.216 458.896 319.872C458.896 318.997 459.035 318.224 459.312 317.552C459.6 316.869 460.006 316.336 460.528 315.952C461.062 315.568 461.686 315.376 462.4 315.376C463.52 315.376 464.379 315.744 464.976 316.48C465.574 317.216 465.872 318.235 465.872 319.536ZM464.416 319.104C464.416 318.272 464.251 317.637 463.92 317.2C463.59 316.763 463.094 316.544 462.432 316.544C461.227 316.544 460.571 317.429 460.464 319.2H464.416V319.104ZM474.41 311.184V325.568H474.058V311.184H474.41ZM493.237 324H491.765L491.381 319.024C491.221 317.072 491.131 315.573 491.109 314.528L488.725 322.752H487.301L484.789 314.512C484.789 315.845 484.72 317.387 484.581 319.136L484.213 324H482.773L483.685 312.976H485.733L488.053 320.992L490.261 312.976H492.325L493.237 324ZM501.434 322.032C501.434 322.373 501.493 322.629 501.61 322.8C501.728 322.96 501.904 323.083 502.138 323.168L501.802 324.192C501.365 324.139 501.013 324.016 500.746 323.824C500.48 323.632 500.282 323.333 500.154 322.928C499.589 323.771 498.752 324.192 497.642 324.192C496.81 324.192 496.154 323.957 495.674 323.488C495.194 323.019 494.954 322.405 494.954 321.648C494.954 320.752 495.274 320.064 495.914 319.584C496.565 319.104 497.482 318.864 498.666 318.864H499.962V318.24C499.962 317.643 499.818 317.216 499.53 316.96C499.242 316.704 498.8 316.576 498.202 316.576C497.584 316.576 496.826 316.725 495.93 317.024L495.562 315.952C496.608 315.568 497.578 315.376 498.474 315.376C499.466 315.376 500.208 315.621 500.698 316.112C501.189 316.592 501.434 317.28 501.434 318.176V322.032ZM497.978 323.088C498.821 323.088 499.482 322.651 499.962 321.776V319.84H498.858C497.301 319.84 496.522 320.416 496.522 321.568C496.522 322.069 496.645 322.448 496.89 322.704C497.136 322.96 497.498 323.088 497.978 323.088ZM505.981 324.192C505.437 324.192 505.005 324.032 504.685 323.712C504.376 323.381 504.221 322.923 504.221 322.336V312.176L505.693 312V322.304C505.693 322.539 505.731 322.709 505.805 322.816C505.891 322.923 506.029 322.976 506.221 322.976C506.424 322.976 506.605 322.944 506.765 322.88L507.149 323.904C506.797 324.096 506.408 324.192 505.981 324.192ZM510.461 315.568V324H508.989V315.568H510.461ZM509.709 311.52C510.018 311.52 510.269 311.616 510.461 311.808C510.653 312 510.749 312.24 510.749 312.528C510.749 312.816 510.653 313.056 510.461 313.248C510.269 313.429 510.018 313.52 509.709 313.52C509.41 313.52 509.165 313.429 508.973 313.248C508.781 313.056 508.685 312.816 508.685 312.528C508.685 312.24 508.781 312 508.973 311.808C509.165 311.616 509.41 311.52 509.709 311.52ZM517.36 315.376C518.32 315.376 519.083 315.765 519.648 316.544C520.214 317.312 520.496 318.389 520.496 319.776C520.496 320.651 520.363 321.424 520.096 322.096C519.83 322.757 519.446 323.275 518.944 323.648C518.443 324.011 517.856 324.192 517.184 324.192C516.299 324.192 515.552 323.819 514.944 323.072L514.8 324H513.504V312.176L514.976 312V316.624C515.584 315.792 516.379 315.376 517.36 315.376ZM516.832 323.024C517.483 323.024 517.99 322.763 518.352 322.24C518.726 321.707 518.912 320.885 518.912 319.776C518.912 318.635 518.742 317.813 518.4 317.312C518.059 316.8 517.574 316.544 516.944 316.544C516.198 316.544 515.542 316.981 514.976 317.856V321.888C515.2 322.24 515.472 322.517 515.792 322.72C516.123 322.923 516.47 323.024 516.832 323.024ZM529.276 324H528.012L527.9 322.688C527.58 323.211 527.212 323.595 526.796 323.84C526.38 324.075 525.874 324.192 525.276 324.192C524.54 324.192 523.964 323.968 523.548 323.52C523.132 323.072 522.924 322.437 522.924 321.616V315.568H524.396V321.456C524.396 322.032 524.498 322.443 524.7 322.688C524.903 322.923 525.234 323.04 525.692 323.04C526.514 323.04 527.218 322.555 527.804 321.584V315.568H529.276V324ZM532.701 321.968C533.021 321.968 533.288 322.075 533.501 322.288C533.714 322.501 533.821 322.763 533.821 323.072C533.821 323.403 533.725 323.781 533.533 324.208L532.461 326.656H531.405L532.045 324C531.906 323.893 531.794 323.76 531.709 323.6C531.634 323.44 531.597 323.264 531.597 323.072C531.597 322.763 531.704 322.501 531.917 322.288C532.13 322.075 532.392 321.968 532.701 321.968ZM544.331 312.784C544.992 312.784 545.547 312.869 545.995 313.04C546.454 313.211 546.918 313.488 547.387 313.872L546.555 314.848C545.883 314.304 545.174 314.032 544.427 314.032C543.51 314.032 542.768 314.384 542.203 315.088C541.648 315.792 541.371 316.923 541.371 318.48C541.371 319.995 541.648 321.115 542.203 321.84C542.758 322.555 543.494 322.912 544.411 322.912C544.88 322.912 545.291 322.832 545.643 322.672C545.995 322.512 546.368 322.288 546.763 322L547.515 322.96C547.174 323.312 546.736 323.605 546.203 323.84C545.67 324.075 545.056 324.192 544.363 324.192C543.467 324.192 542.667 323.973 541.963 323.536C541.27 323.088 540.726 322.437 540.331 321.584C539.947 320.72 539.755 319.685 539.755 318.48C539.755 317.275 539.958 316.245 540.363 315.392C540.768 314.528 541.318 313.877 542.011 313.44C542.704 313.003 543.478 312.784 544.331 312.784ZM555.3 324L554.468 321.232H550.292L549.46 324H547.924L551.46 312.976H553.38L556.9 324H555.3ZM550.66 320H554.1L552.388 314.24L550.66 320Z" fill="white"/>
<path d="M598.378 77.784C599.039 77.784 599.594 77.8693 600.042 78.04C600.501 78.2107 600.965 78.488 601.434 78.872L600.602 79.848C599.93 79.304 599.221 79.032 598.474 79.032C597.557 79.032 596.815 79.384 596.25 80.088C595.695 80.792 595.418 81.9227 595.418 83.48C595.418 84.9947 595.695 86.1147 596.25 86.84C596.805 87.5547 597.541 87.912 598.458 87.912C598.927 87.912 599.338 87.832 599.69 87.672C600.042 87.512 600.415 87.288 600.81 87L601.562 87.96C601.221 88.312 600.783 88.6053 600.25 88.84C599.717 89.0747 599.103 89.192 598.41 89.192C597.514 89.192 596.714 88.9733 596.01 88.536C595.317 88.088 594.773 87.4373 594.378 86.584C593.994 85.72 593.802 84.6853 593.802 83.48C593.802 82.2747 594.005 81.2453 594.41 80.392C594.815 79.528 595.365 78.8773 596.058 78.44C596.751 78.0027 597.525 77.784 598.378 77.784ZM609.401 89H608.137L608.025 87.688C607.705 88.2107 607.337 88.5947 606.921 88.84C606.505 89.0747 605.999 89.192 605.401 89.192C604.665 89.192 604.089 88.968 603.673 88.52C603.257 88.072 603.049 87.4373 603.049 86.616V80.568H604.521V86.456C604.521 87.032 604.623 87.4427 604.825 87.688C605.028 87.9227 605.359 88.04 605.817 88.04C606.639 88.04 607.343 87.5547 607.929 86.584V80.568H609.401V89ZM616.106 80.376C616.405 80.376 616.682 80.408 616.938 80.472L616.666 81.912C616.41 81.848 616.165 81.816 615.93 81.816C615.407 81.816 614.986 82.008 614.666 82.392C614.346 82.776 614.095 83.3733 613.914 84.184V89H612.442V80.568H613.706L613.85 82.28C614.074 81.6507 614.378 81.176 614.762 80.856C615.146 80.536 615.594 80.376 616.106 80.376ZM622.278 80.376C622.576 80.376 622.854 80.408 623.11 80.472L622.838 81.912C622.582 81.848 622.336 81.816 622.102 81.816C621.579 81.816 621.158 82.008 620.838 82.392C620.518 82.776 620.267 83.3733 620.086 84.184V89H618.614V80.568H619.878L620.022 82.28C620.246 81.6507 620.55 81.176 620.934 80.856C621.318 80.536 621.766 80.376 622.278 80.376ZM630.669 84.536C630.669 84.7813 630.659 85.032 630.637 85.288H625.261C625.325 86.216 625.56 86.8987 625.965 87.336C626.371 87.7733 626.893 87.992 627.533 87.992C627.939 87.992 628.312 87.9333 628.653 87.816C628.995 87.6987 629.352 87.512 629.725 87.256L630.365 88.136C629.469 88.84 628.488 89.192 627.421 89.192C626.248 89.192 625.331 88.808 624.669 88.04C624.019 87.272 623.693 86.216 623.693 84.872C623.693 83.9973 623.832 83.224 624.109 82.552C624.397 81.8693 624.803 81.336 625.325 80.952C625.859 80.568 626.483 80.376 627.197 80.376C628.317 80.376 629.176 80.744 629.773 81.48C630.371 82.216 630.669 83.2347 630.669 84.536ZM629.213 84.104C629.213 83.272 629.048 82.6373 628.717 82.2C628.387 81.7627 627.891 81.544 627.229 81.544C626.024 81.544 625.368 82.4293 625.261 84.2H629.213V84.104ZM636.988 80.376C637.756 80.376 638.353 80.6053 638.78 81.064C639.217 81.5227 639.436 82.152 639.436 82.952V89H637.964V83.16C637.964 82.5627 637.852 82.1413 637.628 81.896C637.404 81.6507 637.073 81.528 636.636 81.528C636.188 81.528 635.793 81.656 635.452 81.912C635.111 82.168 634.791 82.536 634.492 83.016V89H633.02V80.568H634.284L634.412 81.816C634.711 81.368 635.079 81.016 635.516 80.76C635.964 80.504 636.455 80.376 636.988 80.376ZM646.651 88.616C646.096 89 645.467 89.192 644.763 89.192C644.048 89.192 643.488 88.9893 643.083 88.584C642.688 88.168 642.491 87.5707 642.491 86.792V81.704H641.019V80.568H642.491V78.664L643.963 78.488V80.568H645.963L645.803 81.704H643.963V86.728C643.963 87.1653 644.038 87.4853 644.187 87.688C644.347 87.88 644.608 87.976 644.971 87.976C645.302 87.976 645.675 87.864 646.091 87.64L646.651 88.616ZM654.011 77.976V87.672H658.539L658.363 89H652.491V77.976H654.011ZM663.141 80.376C664.325 80.376 665.242 80.7707 665.893 81.56C666.554 82.3493 666.885 83.4213 666.885 84.776C666.885 85.6507 666.736 86.424 666.437 87.096C666.138 87.7573 665.706 88.2747 665.141 88.648C664.576 89.0107 663.904 89.192 663.125 89.192C661.941 89.192 661.018 88.7973 660.357 88.008C659.696 87.2187 659.365 86.1467 659.365 84.792C659.365 83.9173 659.514 83.1493 659.813 82.488C660.112 81.816 660.544 81.2987 661.109 80.936C661.674 80.5627 662.352 80.376 663.141 80.376ZM663.141 81.56C661.68 81.56 660.949 82.6373 660.949 84.792C660.949 86.936 661.674 88.008 663.125 88.008C664.576 88.008 665.301 86.9307 665.301 84.776C665.301 82.632 664.581 81.56 663.141 81.56ZM672.389 80.376C672.89 80.376 673.349 80.4507 673.765 80.6C674.181 80.7387 674.581 80.968 674.965 81.288L674.261 82.216C673.962 82.0027 673.669 81.848 673.381 81.752C673.104 81.6453 672.794 81.592 672.453 81.592C671.77 81.592 671.237 81.864 670.853 82.408C670.48 82.952 670.293 83.7573 670.293 84.824C670.293 85.8907 670.48 86.68 670.853 87.192C671.226 87.6933 671.76 87.944 672.453 87.944C672.784 87.944 673.088 87.896 673.365 87.8C673.642 87.6933 673.952 87.528 674.293 87.304L674.965 88.264C674.197 88.8827 673.338 89.192 672.389 89.192C671.248 89.192 670.346 88.808 669.685 88.04C669.034 87.272 668.709 86.2107 668.709 84.856C668.709 83.96 668.858 83.176 669.157 82.504C669.456 81.832 669.877 81.3093 670.421 80.936C670.976 80.5627 671.632 80.376 672.389 80.376ZM682.481 87.032C682.481 87.3733 682.54 87.6293 682.657 87.8C682.775 87.96 682.951 88.0827 683.185 88.168L682.849 89.192C682.412 89.1387 682.06 89.016 681.793 88.824C681.527 88.632 681.329 88.3333 681.201 87.928C680.636 88.7707 679.799 89.192 678.689 89.192C677.857 89.192 677.201 88.9573 676.721 88.488C676.241 88.0187 676.001 87.4053 676.001 86.648C676.001 85.752 676.321 85.064 676.961 84.584C677.612 84.104 678.529 83.864 679.713 83.864H681.009V83.24C681.009 82.6427 680.865 82.216 680.577 81.96C680.289 81.704 679.847 81.576 679.249 81.576C678.631 81.576 677.873 81.7253 676.977 82.024L676.609 80.952C677.655 80.568 678.625 80.376 679.521 80.376C680.513 80.376 681.255 80.6213 681.745 81.112C682.236 81.592 682.481 82.28 682.481 83.176V87.032ZM679.025 88.088C679.868 88.088 680.529 87.6507 681.009 86.776V84.84H679.905C678.348 84.84 677.569 85.416 677.569 86.568C677.569 87.0693 677.692 87.448 677.937 87.704C678.183 87.96 678.545 88.088 679.025 88.088ZM689.76 88.616C689.206 89 688.576 89.192 687.872 89.192C687.158 89.192 686.598 88.9893 686.192 88.584C685.798 88.168 685.6 87.5707 685.6 86.792V81.704H684.128V80.568H685.6V78.664L687.072 78.488V80.568H689.072L688.912 81.704H687.072V86.728C687.072 87.1653 687.147 87.4853 687.296 87.688C687.456 87.88 687.718 87.976 688.08 87.976C688.411 87.976 688.784 87.864 689.2 87.64L689.76 88.616ZM692.758 80.568V89H691.286V80.568H692.758ZM692.006 76.52C692.315 76.52 692.566 76.616 692.758 76.808C692.95 77 693.046 77.24 693.046 77.528C693.046 77.816 692.95 78.056 692.758 78.248C692.566 78.4293 692.315 78.52 692.006 78.52C691.707 78.52 691.462 78.4293 691.27 78.248C691.078 78.056 690.982 77.816 690.982 77.528C690.982 77.24 691.078 77 691.27 76.808C691.462 76.616 691.707 76.52 692.006 76.52ZM698.969 80.376C700.153 80.376 701.071 80.7707 701.721 81.56C702.383 82.3493 702.713 83.4213 702.713 84.776C702.713 85.6507 702.564 86.424 702.265 87.096C701.967 87.7573 701.535 88.2747 700.969 88.648C700.404 89.0107 699.732 89.192 698.953 89.192C697.769 89.192 696.847 88.7973 696.185 88.008C695.524 87.2187 695.193 86.1467 695.193 84.792C695.193 83.9173 695.343 83.1493 695.641 82.488C695.94 81.816 696.372 81.2987 696.937 80.936C697.503 80.5627 698.18 80.376 698.969 80.376ZM698.969 81.56C697.508 81.56 696.777 82.6373 696.777 84.792C696.777 86.936 697.503 88.008 698.953 88.008C700.404 88.008 701.129 86.9307 701.129 84.776C701.129 82.632 700.409 81.56 698.969 81.56ZM709.113 80.376C709.881 80.376 710.478 80.6053 710.905 81.064C711.342 81.5227 711.561 82.152 711.561 82.952V89H710.089V83.16C710.089 82.5627 709.977 82.1413 709.753 81.896C709.529 81.6507 709.198 81.528 708.761 81.528C708.313 81.528 707.918 81.656 707.577 81.912C707.236 82.168 706.916 82.536 706.617 83.016V89H705.145V80.568H706.409L706.537 81.816C706.836 81.368 707.204 81.016 707.641 80.76C708.089 80.504 708.58 80.376 709.113 80.376Z" fill="white"/>
</svg>
